<svg width="32" height="24" viewBox="0 0 32 24" fill="none" xmlns="http://www.w3.org/2000/svg">
<path d="M28.4341 0H2.94146C1.31692 0 0 1.31692 0 2.94146V20.5902C0 22.2148 1.31692 23.5317 2.94146 23.5317H28.4341C30.0587 23.5317 31.3756 22.2148 31.3756 20.5902V2.94146C31.3756 1.31692 30.0587 0 28.4341 0ZM28.4341 2.94146V5.44201C27.0601 6.56093 24.8696 8.30081 20.1866 11.9678C19.1546 12.7796 17.1102 14.7298 15.6878 14.7071C14.2656 14.73 12.2206 12.7792 11.189 11.9678C6.50676 8.30136 4.31568 6.56111 2.94146 5.44201V2.94146H28.4341ZM2.94146 20.5902V9.21646C4.34564 10.3349 6.33695 11.9043 9.37211 14.281C10.7115 15.3354 13.0572 17.6629 15.6878 17.6487C18.3055 17.6629 20.6214 15.3691 22.0029 14.2815C25.038 11.9049 27.0299 10.335 28.4341 9.21652V20.5902H2.94146Z" fill="white"/>
</svg>
