<svg width="32" height="32" viewBox="0 0 32 32" fill="none" xmlns="http://www.w3.org/2000/svg">
<path d="M22.7473 28.7612C17.4099 28.7543 12.2931 26.631 8.51899 22.8569C4.74488 19.0828 2.62154 13.9659 2.61462 8.62855C2.61462 7.03363 3.2482 5.50403 4.37598 4.37625C5.50376 3.24848 7.03336 2.6149 8.62828 2.6149C8.96601 2.61232 9.30318 2.64297 9.63491 2.70641C9.95561 2.75386 10.2709 2.83268 10.5762 2.94172C10.7909 3.01706 10.9822 3.14715 11.1313 3.31911C11.2803 3.49107 11.3819 3.69896 11.4259 3.92221L13.217 11.7661C13.2652 11.979 13.2594 12.2006 13.2001 12.4107C13.1407 12.6208 13.0296 12.8127 12.8771 12.9688C12.7071 13.1519 12.694 13.1649 11.086 14.0016C12.3737 16.8265 14.633 19.0951 17.4527 20.3944C18.3024 18.7733 18.3155 18.7603 18.4985 18.5903C18.6547 18.4377 18.8465 18.3267 19.0566 18.2673C19.2667 18.2079 19.4883 18.2021 19.7013 18.2504L27.5452 20.0414C27.7613 20.0916 27.961 20.1959 28.1257 20.3445C28.2904 20.4932 28.4145 20.6813 28.4864 20.8912C28.5968 21.2015 28.6799 21.5208 28.7348 21.8455C28.7874 22.1741 28.8137 22.5063 28.8133 22.8391C28.7891 24.4272 28.1378 25.9413 27.0013 27.0508C25.8648 28.1603 24.3355 28.7752 22.7473 28.7612ZM8.62828 5.22953C7.72786 5.23297 6.86531 5.59219 6.22861 6.22888C5.59192 6.86558 5.2327 7.72813 5.22926 8.62855C5.23272 13.2736 7.07948 17.7273 10.364 21.0119C13.6485 24.2964 18.1023 26.1431 22.7473 26.1466C23.6477 26.1432 24.5103 25.7839 25.147 25.1472C25.7837 24.5105 26.1429 23.648 26.1463 22.7476C26.1463 22.6038 26.1463 22.46 26.1463 22.3162L20.0804 20.9173L19.7013 21.6364C19.113 22.7737 18.6815 23.5973 17.5834 23.1528C15.417 22.3774 13.4506 21.1292 11.8269 19.4987C10.2033 17.8683 8.96325 15.8967 8.19687 13.7271C7.72623 12.7074 8.61521 12.2367 9.7395 11.6485L10.4585 11.2955L9.05969 5.22953H8.62828Z" fill="white"/>
</svg>
